<?xml version="1.0" encoding="UTF-8"?>
<svg width="1225px" height="441px" viewBox="0 0 1225 441" version="1.1" xmlns="http://www.w3.org/2000/svg" xmlns:xlink="http://www.w3.org/1999/xlink">
    <!-- Generator: Sketch 64 (93537) - https://sketch.com -->
    <title>logo</title>
    <desc>Created with Sketch.</desc>
    <g id="Page-1" stroke="none" stroke-width="1" fill="none" fill-rule="evenodd">
        <g id="logo" transform="translate(0.000000, -20.167996)">
            <g id="Bag" transform="translate(148.642189, 228.000000) rotate(-12.000000) translate(-148.642189, -228.000000) translate(54.642189, 15.000000)">
                <path d="M68.1498995,108.188641 C54.1672297,114.31855 44.5005631,119.318952 39.1498995,123.189849 C33.799236,127.060745 27.799236,133.394079 21.1498995,142.189849 L54.1498995,348.189849 C57.0638462,355.649493 59.7305128,360.649493 62.1498995,363.189849 C64.5692862,365.730205 68.5692862,367.730205 74.1498995,369.189849 L80.4515919,403.514319 C87.1345879,407.459234 92.0741595,409.872293 95.2703067,410.753496 C104.483536,413.293658 127.071943,424.669527 131.962681,425.709085 C136.853419,426.748644 139.341779,423.815249 149.1499,418.189849 C151.898839,416.613208 154.565506,413.613208 157.1499,409.189849 L153.1499,389.189849 C148.534362,389.873558 145.201028,389.873558 143.1499,389.189849 C141.098771,388.506139 139.432104,386.839472 138.1499,384.189849 L118.1499,258.189849 C118.765773,254.240642 119.765773,251.573975 121.1499,250.189849 C122.534026,248.805722 125.534026,247.472389 130.1499,246.189849 L113.1499,131.189849 C105.765917,121.223221 99.4325836,114.889887 94.1498995,112.189849 C88.8672155,109.48981 80.2005488,108.156074 68.1498995,108.188641 Z" id="Path" fill="#000000"></path>
                <path d="M40.1498995,118.189849 L29.1498995,51.1898487 C25.3970679,48.4257913 22.3970679,46.4257913 20.1498995,45.1898487 C17.9027312,43.9539061 14.2360645,42.2872395 9.14989954,40.1898487 C4.85994854,41.9001429 2.19328188,43.5668095 1.14989954,45.1898487 C0.106517209,46.8128879 -0.226816124,49.8128879 0.149899542,54.1898487 C3.52592857,56.5932644 6.8592619,57.9265977 10.1498995,58.1898487 C13.4405372,58.4530997 18.4405372,57.7864331 25.1498995,56.1898487 L39.1498995,123.189849 L40.1498995,118.189849 Z" id="Path-2" stroke="#979797" fill="#000000"></path>
                <path d="M61.1498995,111.189849 L46.1498995,24.1898487 C38.594344,25.523182 32.9276773,26.1898487 29.1498995,26.1898487 C25.3721218,26.1898487 22.3721218,25.523182 20.1498995,24.1898487 C18.03435,21.4608939 17.03435,19.4608939 17.1498995,18.1898487 C17.2654491,16.9188035 18.5987824,15.2521369 21.1498995,13.1898487 C22.8225503,12.2292713 24.1558837,11.5626047 25.1498995,11.1898487 C26.1439152,10.8170928 27.4772485,10.4837594 29.1498995,10.1898487 C33.3177293,10.682466 36.9843959,11.682466 40.1498995,13.1898487 C43.3154032,14.6972314 46.6487365,17.0305647 50.1498995,20.1898487 L65.1498995,108.189849 L61.1498995,111.189849 Z" id="Path-3" stroke="#979797" fill="#000000"></path>
                <path d="M75.6243742,104.224521 L65.1498995,25.1898487 L65.1498995,25.1898487 C64.9199617,22.6844447 64.9199617,20.6844447 65.1498995,19.1898487 C65.3798374,17.6952527 66.0465041,15.3619194 67.1498995,12.1898487 C70.8385689,8.78830822 73.5052355,6.45497488 75.1498995,5.18984871 C76.7945636,3.92472255 78.4612302,2.92472255 80.1498995,2.18984871 C81.9306055,1.109647 83.2639389,0.442980333 84.1498995,0.189848714 C85.0358602,-0.0632829047 86.0358602,-0.0632829047 87.1498995,0.189848714 C91.0289089,1.06462405 93.3622423,2.06462405 94.1498995,3.18984871 C94.9375568,4.31507338 94.9375568,6.64840671 94.1498995,10.1898487 C93.6340608,12.1558057 92.9673942,13.489139 92.1498995,14.1898487 C91.3324049,14.8905584 89.6657382,15.8905584 87.1498995,17.1898487 C84.3841826,18.166754 82.0508493,18.8334206 80.1498995,19.1898487 C78.2489498,19.5462768 75.2489498,19.5462768 71.1498995,19.1898487 L69.1498995,22.1898487 L80.1498995,108.189849 C77.8604906,108.189849 75.9251598,106.494085 75.6243742,104.224521 Z" id="Path-4" stroke="#979797" fill="#000000"></path>
                <path d="M98.1498995,115.189849 L91.1498995,55.1898487 C90.6844264,53.2213918 90.6844264,51.8880585 91.1498995,51.1898487 C91.6153727,50.4916389 92.9487061,49.8249723 95.1498995,49.1898487 C101.738614,48.3661138 106.405281,47.3661138 109.1499,46.1898487 C111.894518,45.0135837 114.227851,43.0135837 116.1499,40.1898487 C115.711495,36.8016523 115.044829,34.468319 114.1499,33.1898487 C113.25497,31.9113784 111.588304,30.9113784 109.1499,30.1898487 C108.038788,29.523182 107.038788,29.1898487 106.1499,29.1898487 C105.261011,29.1898487 103.927677,29.523182 102.1499,30.1898487 C98.4380507,32.0362947 95.4380507,34.0362947 93.1498995,36.1898487 C91.6890327,37.5647822 90.0738766,39.4206134 88.3044313,41.7573421 C86.2633262,44.4528253 85.3526849,47.8374798 85.7657021,51.1932444 L93.1498995,111.189849 L93.1498995,111.189849 L98.1498995,115.189849 Z" id="Path-5" stroke="#979797" fill="#000000"></path>
                <path d="M117.1499,155.189849 C129.444902,165.626529 136.111568,173.959862 137.1499,180.189849 C138.188231,186.419835 134.521564,196.086502 126.1499,209.189849" id="Path-6" stroke="#000000" stroke-width="4" stroke-linecap="round"></path>
                <path d="M129.1499,253.189849 L149.1499,250.189849 C155.569021,251.275636 160.235687,253.275636 163.1499,256.189849 C166.064112,259.104061 169.397445,265.104061 173.1499,274.189849 L187.1499,360.189849 C185.881975,366.64184 184.548642,370.975174 183.1499,373.189849 C181.751157,375.404524 179.084491,377.404524 175.1499,379.189849 L149.1499,383.189849 C147.936117,383.451921 146.936117,383.451921 146.1499,383.189849 C145.363682,382.927776 144.363682,382.261109 143.1499,381.189849 L124.1499,260.189849 C123.537083,258.381125 123.537083,257.047792 124.1499,256.189849 C124.762716,255.331906 126.429383,254.331906 129.1499,253.189849 Z" id="Path-7" stroke="#979797" fill="#000000"></path>
            </g>
            <path d="M230,428.167996 C284.219057,435.570598 324.219057,440.237265 350,442.167996 C375.780943,444.098728 411.44761,445.098728 457,445.167996 C473.171166,451.922369 484.837833,455.922369 492,457.167996 C515.416669,461.240567 533.965644,460.167996 546,460.167996 C557.558802,460.167996 572.876804,460.92506 588,457.167996 C593.23065,455.868543 600.897317,451.868543 611,445.167996 C654.222771,454.836115 685.222771,459.169449 704,458.167996 C716.191492,457.517783 735.620689,453.875604 748,448.167996 C752.45813,446.11253 756.791463,442.445863 761,437.167996 L761,408.167996 C899.393353,389.495367 1001.72669,373.8287 1068,361.167996 C1134.27331,348.507293 1173.93998,337.840626 1187,329.167996 C1193.27187,325.616078 1198.93853,322.282745 1204,319.167996 C1209.06147,316.053248 1214.3948,310.719914 1220,303.167996 C1223.56534,294.071258 1224.89867,287.404592 1224,283.167996 C1223.10133,278.931401 1220.76799,274.598068 1217,270.167996 C1207.16938,262.560205 1199.16938,257.560205 1193,255.167996 C1186.83062,252.775787 1178.49729,251.442454 1168,251.167996 C1162.58418,245.13269 1157.58418,240.13269 1153,236.167996 C1148.41582,232.203302 1141.08249,226.536636 1131,219.167996 C1100.55556,212.50133 1076.22222,209.167996 1058,209.167996 C1039.77778,209.167996 1012.44444,211.834663 976,217.167996 L367,310.167996 C327.559555,321.687684 298.226221,325.354351 279,321.167996 C259.773779,316.981642 247.773779,304.314975 243,283.167996 L230,428.167996 Z" id="Path-8" fill="#000000"></path>
            <path d="M149,351.167996 C130.186782,355.529135 116.186782,359.195802 107,362.167996 C97.8132177,365.140191 89.146551,368.806857 81,373.167996 C81,369.834663 74,368.167996 60,368.167996 C46,368.167996 26,372.834663 0,382.167996 L68,384.167996 L68,405.167996 L210,424.167996 L149,351.167996 Z" id="Path-9" fill="#000000"></path>
        </g>
    </g>
</svg>