<?xml version="1.0" encoding="UTF-8"?>
<svg width="200px" height="200px" viewBox="0 0 200 200" version="1.1" xmlns="http://www.w3.org/2000/svg" xmlns:xlink="http://www.w3.org/1999/xlink">
    <!-- Generator: Sketch 64 (93537) - https://sketch.com -->
    <title>logo7</title>
    <desc>Created with Sketch.</desc>
    <defs>
        <linearGradient x1="79.658212%" y1="56.9981628%" x2="10.6144123%" y2="38.8064998%" id="linearGradient-1">
            <stop stop-color="#0EA020" offset="0%"></stop>
            <stop stop-color="#000000" stop-opacity="0.5" offset="100%"></stop>
        </linearGradient>
        <path d="M117.5,110.5 L140,114 C151.07726,117.645324 157.410594,120.645324 159,123 C160.589406,125.354676 158.756073,129.021343 153.5,134 C147.709179,137.080852 145.542512,139.747518 147,142 C148.457488,144.252482 154.290821,147.252482 164.5,151 C175.638367,154.541306 181.638367,157.37464 182.5,159.5 C183.108202,161.00023 182.2382,164.296015 178.5,167 C177.461555,167.751148 175.628221,168.917814 173,170.5 C168.505731,172.038395 164.839064,173.205062 162,174 C159.160936,174.794938 154.160936,175.628271 147,176.5 C130.916228,177.589671 118.916228,177.923005 111,177.5 C103.083772,177.076995 93.2504385,175.576995 81.5,173 C68.3794623,170.747349 58.7127956,168.747349 52.5,167 C46.2872044,165.252651 39.953871,162.752651 33.5,159.5 C28.1118478,155.556899 24.9451811,152.723566 24,151 C23.0548189,149.276434 22.2214856,146.943101 21.5,144 L21.5,136.5 L21.5,136.5 C21.5,134.055556 24.5,130.388889 30.5,125.5 L45,118 C52.7899327,116.049038 58.6232661,114.715705 62.5,114 C66.1568811,113.324883 70.8132382,112.545102 76.4690713,111.660655 L77.212457,111.5447 C77.4041765,111.51487 77.5970534,111.493023 77.7905879,111.479217 C84.3685168,111.009969 90.1049874,110.683563 95,110.5 C99.9669583,110.313739 107.466958,110.313739 117.5,110.5 Z M63.5,134 C51.0735931,134 41,137.357864 41,141.5 C41,145.642136 51.0735931,149 63.5,149 C75.9264069,149 86,145.642136 86,141.5 C86,137.357864 75.9264069,134 63.5,134 Z" id="path-2"></path>
        <radialGradient cx="50%" cy="52.9398518%" fx="50%" fy="52.9398518%" r="72.9827711%" gradientTransform="translate(0.500000,0.529399),scale(1.000000,0.682540),rotate(60.559108),scale(1.000000,0.759805),translate(-0.500000,-0.529399)" id="radialGradient-3">
            <stop stop-color="#3435F6" stop-opacity="0.5" offset="0%"></stop>
            <stop stop-color="#0B1075" stop-opacity="0.493689904" offset="100%"></stop>
        </radialGradient>
        <rect id="path-4" x="10" y="-10" width="43" height="63" rx="3"></rect>
        <linearGradient x1="50%" y1="0%" x2="50%" y2="100%" id="linearGradient-5">
            <stop stop-color="#FFFFFF" stop-opacity="0.5" offset="0%"></stop>
            <stop stop-color="#000000" stop-opacity="0.5" offset="100%"></stop>
        </linearGradient>
        <path d="M124.5,86 L124.5,77 C124.5,76.4477153 124.947715,76 125.5,76 L132.5,76 C133.052285,76 133.5,76.4477153 133.5,77 L133.5,86 L133.5,86 L135.5,86 L135.5,75.5 C135.5,74.9477153 135.052285,74.5 134.5,74.5 L123.5,74.5 C122.947715,74.5 122.5,74.9477153 122.5,75.5 L122.5,86 L122.5,86 L124.5,86 Z" id="path-6"></path>
        <radialGradient cx="50%" cy="52.9398518%" fx="50%" fy="52.9398518%" r="72.9827711%" gradientTransform="translate(0.500000,0.529399),scale(1.000000,0.682540),rotate(60.559108),scale(1.000000,0.759805),translate(-0.500000,-0.529399)" id="radialGradient-7">
            <stop stop-color="#F6DE34" stop-opacity="0.5" offset="0%"></stop>
            <stop stop-color="#755F0B" stop-opacity="0.493689904" offset="100%"></stop>
        </radialGradient>
        <rect id="path-8" x="108" y="86" width="43" height="63" rx="3"></rect>
    </defs>
    <g id="logo7" stroke="none" stroke-width="1" fill="none" fill-rule="evenodd">
        <path d="M39,140 C48.8888889,136 56.3888889,134 61.5,134 C66.6111111,134 74.1111111,136 84,140" id="Path-14" stroke="#000000" stroke-width="4" stroke-linecap="round" transform="translate(61.500000, 137.000000) rotate(-4.000000) translate(-61.500000, -137.000000) "></path>
        <g id="Combined-Shape">
            <use fill="#0C831B" xlink:href="#path-2"></use>
            <use fill="url(#linearGradient-1)" xlink:href="#path-2"></use>
        </g>
        <path d="M63.75,33 C64.9926407,33 66,34.0073593 66,35.25 L66,149 L66,149 L60.5,149 L61.4806042,35.2499164 C61.4913431,34.0041968 62.5042341,33 63.75,33 Z" id="Path-15" fill="#000000"></path>
        <path d="M66.5,34.5 C74.5684874,37.6987985 82.2351541,40.1987985 89.5,42 C96.1339773,43.6447878 107.13336,45.8722784 122.498149,48.6824718 L122.498149,48.682471 C123.584695,48.8811984 124.304414,49.9231183 124.105687,51.0096643 C124.012405,51.519685 123.724705,51.9735487 123.303255,52.2755466 C120.406982,54.3509261 117.63923,56.0924105 115,57.5 C111.258318,59.4955638 105.258318,62.1622305 97,65.5 C91.1930319,66.6002946 87.1930319,67.6002946 85,68.5 C82.8069681,69.3997054 80.3069681,71.066372 77.5,73.5 C75.8125866,75.9980509 74.3125866,77.6647176 73,78.5 C71.6874134,79.3352824 69.5207467,80.0019491 66.5,80.5 L66.5,34.5 Z" id="Path-16" fill="#C21616"></path>
        <path d="M125,151.25 C125,151.416667 123.666667,151.416667 121,151.25" id="Path-18" stroke="#001D50" stroke-linecap="round"></path>
        <path d="M169,151.25 C169,151.416667 167.666667,151.416667 165,151.25" id="Path-18" stroke="#001D50" stroke-linecap="round"></path>
        <g id="backcase" transform="translate(111.000000, 108.000000)">
            <g id="Rectangle" transform="translate(31.500000, 21.500000) rotate(-90.000000) translate(-31.500000, -21.500000) ">
                <use fill="#003AFF" xlink:href="#path-4"></use>
                <use fill-opacity="0.71" fill="url(#radialGradient-3)" xlink:href="#path-4"></use>
            </g>
            <rect id="Rectangle" stroke="#B7B7B7" stroke-width="0.5" transform="translate(31.500000, 21.500000) rotate(-90.000000) translate(-31.500000, -21.500000) " x="11.25" y="-8.75" width="40.5" height="60.5" rx="3"></rect>
        </g>
        <g id="wheel" transform="translate(112.000000, 147.000000)">
            <circle id="Oval" stroke="#000000" fill="#D8D8D8" cx="2.5" cy="2.5" r="2"></circle>
            <circle id="Oval" stroke="#979797" fill="#000000" cx="2.5" cy="2.5" r="1"></circle>
        </g>
        <g id="wheel" transform="translate(142.000000, 147.000000)">
            <circle id="Oval" stroke="#000000" fill="#D8D8D8" cx="2.5" cy="2.5" r="2"></circle>
            <circle id="Oval" stroke="#979797" fill="#000000" cx="2.5" cy="2.5" r="1"></circle>
        </g>
        <g id="Path-17">
            <use fill="#919191" xlink:href="#path-6"></use>
            <use stroke="#818181" stroke-width="0.5" fill="url(#linearGradient-5)" xlink:href="#path-6"></use>
        </g>
        <g id="Rectangle">
            <use fill="#EC8C00" xlink:href="#path-8"></use>
            <use fill-opacity="0.71" fill="url(#radialGradient-7)" xlink:href="#path-8"></use>
        </g>
        <rect id="Rectangle" stroke="#B7B7B7" stroke-width="0.5" x="109.25" y="87.25" width="40.5" height="60.5" rx="3"></rect>
        <path d="M108,110.5 C106.968185,111.350904 106.301519,112.01757 106,112.5 C105.698481,112.98243 105.365148,113.649096 105,114.5 L104.5,117 L105,119.5 C105.828285,120.984856 106.328285,121.984856 106.5,122.5 C106.671715,123.015144 107.171715,123.515144 108,124 C107.883429,123.508189 107.883429,123.174856 108,123 C108.116571,122.825144 108.116571,122.491811 108,122 C107.202323,121.007745 106.702323,120.174412 106.5,119.5 C106.297677,118.825588 106.13101,117.992255 106,117 C106.138862,115.648236 106.305529,114.648236 106.5,114 C106.694471,113.351764 107.194471,112.685097 108,112 L108,110.5 Z" id="Path-19" stroke="#1300AA" stroke-width="0.5" fill="#100090"></path>
    </g>
</svg>