<?xml version="1.0" encoding="UTF-8"?>
<svg width="200px" height="200px" viewBox="0 0 200 200" version="1.1" xmlns="http://www.w3.org/2000/svg" xmlns:xlink="http://www.w3.org/1999/xlink">
    <!-- Generator: Sketch 64 (93537) - https://sketch.com -->
    <title>logo6</title>
    <desc>Created with Sketch.</desc>
    <defs>
        <linearGradient x1="79.658212%" y1="56.9981628%" x2="10.6144123%" y2="38.8064998%" id="linearGradient-1">
            <stop stop-color="#0EA020" offset="0%"></stop>
            <stop stop-color="#000000" stop-opacity="0.5" offset="100%"></stop>
        </linearGradient>
        <path d="M117.5,110.5 L140,114 C151.07726,117.645324 157.410594,120.645324 159,123 C160.589406,125.354676 158.756073,129.021343 153.5,134 C147.709179,137.080852 145.542512,139.747518 147,142 C148.457488,144.252482 154.290821,147.252482 164.5,151 C175.638367,154.541306 181.638367,157.37464 182.5,159.5 C183.108202,161.00023 182.2382,164.296015 178.5,167 C177.461555,167.751148 175.628221,168.917814 173,170.5 C168.505731,172.038395 164.839064,173.205062 162,174 C159.160936,174.794938 154.160936,175.628271 147,176.5 C130.916228,177.589671 118.916228,177.923005 111,177.5 C103.083772,177.076995 93.2504385,175.576995 81.5,173 C68.3794623,170.747349 58.7127956,168.747349 52.5,167 C46.2872044,165.252651 39.953871,162.752651 33.5,159.5 C28.1118478,155.556899 24.9451811,152.723566 24,151 C23.0548189,149.276434 22.2214856,146.943101 21.5,144 L21.5,136.5 L21.5,136.5 C21.5,134.055556 24.5,130.388889 30.5,125.5 L45,118 C52.7899327,116.049038 58.6232661,114.715705 62.5,114 C66.1568811,113.324883 70.8132382,112.545102 76.4690713,111.660655 L77.212457,111.5447 C77.4041765,111.51487 77.5970534,111.493023 77.7905879,111.479217 C84.3685168,111.009969 90.1049874,110.683563 95,110.5 C99.9669583,110.313739 107.466958,110.313739 117.5,110.5 Z M63.5,134 C51.0735931,134 41,137.357864 41,141.5 C41,145.642136 51.0735931,149 63.5,149 C75.9264069,149 86,145.642136 86,141.5 C86,137.357864 75.9264069,134 63.5,134 Z" id="path-2"></path>
    </defs>
    <g id="logo6" stroke="none" stroke-width="1" fill="none" fill-rule="evenodd">
        <path d="M39,140 C48.8888889,136 56.3888889,134 61.5,134 C66.6111111,134 74.1111111,136 84,140" id="Path-14" stroke="#000000" stroke-width="4" stroke-linecap="round" transform="translate(61.500000, 137.000000) rotate(-4.000000) translate(-61.500000, -137.000000) "></path>
        <g id="Combined-Shape">
            <use fill="#0C831B" xlink:href="#path-2"></use>
            <use fill="url(#linearGradient-1)" xlink:href="#path-2"></use>
        </g>
        <path d="M66.5,34.5 C74.5684874,37.6987985 82.2351541,40.1987985 89.5,42 C96.1339773,43.6447878 107.13336,45.8722784 122.498149,48.6824718 L122.498149,48.682471 C123.584695,48.8811984 124.304414,49.9231183 124.105687,51.0096643 C124.012405,51.519685 123.724705,51.9735487 123.303255,52.2755466 C120.406982,54.3509261 117.63923,56.0924105 115,57.5 C111.258318,59.4955638 105.258318,62.1622305 97,65.5 C91.1930319,66.6002946 87.1930319,67.6002946 85,68.5 C82.8069681,69.3997054 80.3069681,71.066372 77.5,73.5 C75.8125866,75.9980509 74.3125866,77.6647176 73,78.5 C71.6874134,79.3352824 69.5207467,80.0019491 66.5,80.5 L66.5,34.5 Z" id="Path-16" fill="#C21616"></path>
        <path d="M125.298539,76.6666667 C116.205109,82.1167071 108.871775,85.7833737 103.298539,87.6666667 C97.8813556,89.4972264 92.2985386,91.6666667 85.7985386,93.1666667 C77.7116077,95.0328815 60.4099316,98.7888952 43.7985386,97.1666667 C39.2316363,96.720674 32.385625,95.8250764 24.2985386,93.1666667 C20.2363008,91.8313164 15.5950883,88.8580458 13.2985386,88.6666667 C11.0019889,88.4752875 9.155985,102.34889 14.2985386,105.666667 C19.4410923,108.984443 33.6544323,109.246942 43.2985386,108.666667 C53.4407278,108.056422 63.4809686,106.987735 71.2985386,104.666667 C78.3278622,102.579632 85.2985386,100.666667 88.7985386,99.1666667 C98.9835606,94.8016573 111.150227,87.3016573 125.298539,76.6666667 Z" id="Path" stroke="#DFDFDF" fill="#DFDFDF"></path>
        <path d="M123.298539,68.6666667 C114.205109,74.1167071 106.871775,77.7833737 101.298539,79.6666667 C95.8813556,81.4972264 90.2985386,83.6666667 83.7985386,85.1666667 C75.7116077,87.0328815 58.4099316,90.7888952 41.7985386,89.1666667 C37.2316363,88.720674 30.385625,87.8250764 22.2985386,85.1666667 C18.2363008,83.8313164 13.5950883,80.8580458 11.2985386,80.6666667 C9.00198893,80.4752875 7.155985,94.3488901 12.2985386,97.6666667 C17.4410923,100.984443 31.6544323,101.246942 41.2985386,100.666667 C51.4407278,100.056422 61.4809686,98.9877349 69.2985386,96.6666667 C76.3278622,94.579632 83.2985386,92.6666667 86.7985386,91.1666667 C96.9835606,86.8016573 109.150227,79.3016573 123.298539,68.6666667 Z" id="Path" stroke="#F8B334" fill="#F8B334"></path>
        <path d="M135.298539,57.6666667 L152.798539,55.6666667 L167.798539,46.6666667 C169.465205,45.6666667 170.631872,45.5 171.298539,46.1666667 C171.965205,46.8333333 171.465205,48 169.798539,49.6666667 L155.798539,59.6666667 L151.798539,79.6666667 L149.298539,80.6666667 L148.298539,64.1666667 L133.798539,73.6666667 L131.298539,73.6666667 L124.798539,69.6666667 L131.298539,69.6666667 L144.798539,60.6666667 L134.298539,59.1666667 L135.298539,57.6666667 Z" id="shadowplane" stroke="#DFDFDF" fill="#DFDFDF"></path>
        <path d="M132.298539,51.6666667 L149.798539,49.6666667 L164.798539,40.6666667 C166.465205,40 167.631872,39.8333333 168.298539,40.1666667 C168.965205,40.5 168.465205,41.6666667 166.798539,43.6666667 L152.798539,53.6666667 L148.798539,73.6666667 L146.298539,74.6666667 L145.298539,58.1666667 L130.798539,67.6666667 L128.298539,67.6666667 L121.798539,63.6666667 L128.298539,63.6666667 L141.798539,54.6666667 L131.298539,53.1666667 L132.298539,51.6666667 Z" id="solidplane" stroke="#F8B334" fill="#F8B334"></path>
        <path d="M63.75,33 C64.9926407,33 66,34.0073593 66,35.25 L66,149 L66,149 L60.5,149 L61.4806042,35.2499164 C61.4913431,34.0041968 62.5042341,33 63.75,33 Z" id="Path-15" fill="#000000"></path>
    </g>
</svg>