<?xml version="1.0" encoding="UTF-8"?>
<svg width="200px" height="200px" viewBox="0 0 200 200" version="1.1" xmlns="http://www.w3.org/2000/svg" xmlns:xlink="http://www.w3.org/1999/xlink">
    <!-- Generator: Sketch 64 (93537) - https://sketch.com -->
    <title>logo3</title>
    <desc>Created with Sketch.</desc>
    <g id="logo3" stroke="none" stroke-width="1" fill="none" fill-rule="evenodd">
        <g id="golfbag" transform="translate(54.412405, 18.000000)">
            <path d="M19.087595,165 L48.0654345,165 C50.2745735,165 52.0654345,163.209139 52.0654345,161 C52.0654345,160.992634 52.0654141,160.985267 52.0653734,160.977901 L51.587595,74.5 L51.587595,74.5 L47.587595,74.5 C43.9209283,97.5 40.4209283,114 37.087595,124 C34.7795359,130.924177 32.411564,140.018797 26.587595,149.5 C24.8628656,152.307795 21.3628656,156.474461 16.087595,162 C16.087595,163.656854 17.4307407,165 19.087595,165 Z" id="Path-4" fill-opacity="0.209216565" fill="#06DA21"></path>
            <path d="M16.087595,155 L56.087595,155 C58.2967339,155 60.087595,153.209139 60.087595,151 L60.087595,116.5 C60.087595,114.290861 58.2967339,112.5 56.087595,112.5 L51.587595,112.5 L51.587595,112.5 L51.587595,74.5 L16.087595,74.5 C13.878456,74.5 12.087595,76.290861 12.087595,78.5 L12.087595,151 C12.087595,153.209139 13.878456,155 16.087595,155 Z" id="Path-2" stroke="#05661A"></path>
            <path d="M16.087595,155 L16.087595,161 C16.087595,163.209139 17.878456,165 20.087595,165 L47.587595,165 C49.7967339,165 51.587595,163.209139 51.587595,161 L51.587595,155 L51.587595,155" id="Path-3" stroke="#05661A"></path>
            <path d="M51.587595,112 L46.8527069,112.278523 C44.7384563,112.402891 43.087595,114.153715 43.087595,116.27162 L43.087595,151 C43.087595,153.209139 44.878456,155 47.087595,155 L54.087595,155 L54.087595,155" id="Path-5" stroke="#05661A"></path>
            <path d="M52.087595,73.5 L15.087595,73.5 L15.087595,69.9424173 C15.087595,67.9634477 16.5347058,66.2819422 18.4915837,65.9870702 L49.3804006,61.3325909 C50.4726395,61.168007 51.4914958,61.9200199 51.6560797,63.0122589 C51.6669677,63.0845155 51.6738875,63.1573145 51.6768081,63.2303284 L52.087595,73.5 L52.087595,73.5 Z" id="Path-6" stroke="#05661A"></path>
            <path d="M31.587595,64 L35.087595,63.5 L23.2242004,25.4382759 C23.1374808,25.1600504 23.1764465,24.8578376 23.3309024,24.610708 L24.5550521,22.6520685 C24.8477625,22.183732 24.7053893,21.5667816 24.2370528,21.2740713 C24.0597043,21.1632285 23.8520667,21.1107784 23.6433537,21.1241005 L3.18926113,22.4296809 C2.48985175,22.4743203 1.8648361,22.8817978 1.54179486,23.5037387 C0.268934164,25.9543366 -0.215799138,27.7864236 0.0875949505,29 C0.410026437,30.2897259 1.89844571,31.9842864 4.55285278,34.0836815 C4.87300978,34.3368861 5.31492352,34.370098 5.66932532,34.1675826 L18.0285086,27.1051922 C18.508026,26.8311822 19.1188807,26.997779 19.3928907,27.4772964 C19.4255624,27.534472 19.4525066,27.5947349 19.4733308,27.6572076 L31.587595,64 L31.587595,64 Z" id="Path-7" stroke="#05661A"></path>
            <path d="M42.087595,62.5 L46.087595,62 L45.587595,9 L47.229087,6.70191116 C47.550096,6.25249857 47.4460043,5.62794848 46.9965917,5.30693949 C46.893069,5.2329947 46.7763874,5.17948261 46.6528066,5.14927396 L26.1397954,0.134982327 C25.7942266,0.050486771 25.4297927,0.155960774 25.1827543,0.411947643 C23.1193147,2.55013071 22.087595,4.24614817 22.087595,5.5 C22.087595,6.6779342 22.9981608,8.37619176 24.8192926,10.5947727 C25.279958,11.1559871 26.0085966,11.4234542 26.7229527,11.2935713 L40.9087095,8.71434281 C41.4520859,8.61554711 41.9726692,8.97595093 42.0714649,9.51932728 C42.0821965,9.57835121 42.087595,9.63822112 42.087595,9.69821272 L42.087595,62.5 L42.087595,62.5 Z" id="Path-8" stroke="#05661A"></path>
            <path d="M52.087595,70.5 L61.2301593,69.4028923 C62.8752115,69.205486 64.3688192,70.3790349 64.5662255,72.0240871 C64.5804591,72.1427006 64.587595,72.2620584 64.587595,72.3815228 L64.587595,130 C64.587595,131.104569 63.6921645,132 62.587595,132 L60.087595,132 L60.087595,132 L60.087595,135 L66.528784,135 C67.6333535,135 68.528784,134.104569 68.528784,133 C68.528784,132.980681 68.528504,132.961364 68.5279443,132.942053 L66.7167444,70.4556561 C66.6527383,68.2474445 64.8107419,66.5092226 62.6025303,66.5732287 C62.4584374,66.5774053 62.3146755,66.5893682 62.1718741,66.6090649 L52.087595,68 L52.087595,68 L52.087595,70.5 Z" id="Path-9" stroke="#05661A"></path>
        </g>
        <path d="M137.298539,97.6666667 C128.205109,103.116707 120.871775,106.783374 115.298539,108.666667 C109.881356,110.497226 104.298539,112.666667 97.7985386,114.166667 C89.7116077,116.032881 72.4099316,119.788895 55.7985386,118.166667 C51.2316363,117.720674 44.385625,116.825076 36.2985386,114.166667 C32.2363008,112.831316 27.5950883,109.858046 25.2985386,109.666667 C23.0019889,109.475288 21.155985,123.34889 26.2985386,126.666667 C31.4410923,129.984443 45.6544323,130.246942 55.2985386,129.666667 C65.4407278,129.056422 75.4809686,127.987735 83.2985386,125.666667 C90.3278622,123.579632 97.2985386,121.666667 100.798539,120.166667 C110.983561,115.801657 123.150227,108.301657 137.298539,97.6666667 Z" id="Path" stroke="#DFDFDF" fill="#DFDFDF"></path>
        <path d="M135.298539,89.6666667 C126.205109,95.1167071 118.871775,98.7833737 113.298539,100.666667 C107.881356,102.497226 102.298539,104.666667 95.7985386,106.166667 C87.7116077,108.032881 70.4099316,111.788895 53.7985386,110.166667 C49.2316363,109.720674 42.385625,108.825076 34.2985386,106.166667 C30.2363008,104.831316 25.5950883,101.858046 23.2985386,101.666667 C21.0019889,101.475288 19.155985,115.34889 24.2985386,118.666667 C29.4410923,121.984443 43.6544323,122.246942 53.2985386,121.666667 C63.4407278,121.056422 73.4809686,119.987735 81.2985386,117.666667 C88.3278622,115.579632 95.2985386,113.666667 98.7985386,112.166667 C108.983561,107.801657 121.150227,100.301657 135.298539,89.6666667 Z" id="Path" stroke="#F8B334" fill="#F8B334"></path>
        <path d="M147.298539,78.6666667 L164.798539,76.6666667 L179.798539,67.6666667 C181.465205,66.6666667 182.631872,66.5 183.298539,67.1666667 C183.965205,67.8333333 183.465205,69 181.798539,70.6666667 L167.798539,80.6666667 L163.798539,100.666667 L161.298539,101.666667 L160.298539,85.1666667 L145.798539,94.6666667 L143.298539,94.6666667 L136.798539,90.6666667 L143.298539,90.6666667 L156.798539,81.6666667 L146.298539,80.1666667 L147.298539,78.6666667 Z" id="shadowplane" stroke="#DFDFDF" fill="#DFDFDF"></path>
        <path d="M144.298539,72.6666667 L161.798539,70.6666667 L176.798539,61.6666667 C178.465205,61 179.631872,60.8333333 180.298539,61.1666667 C180.965205,61.5 180.465205,62.6666667 178.798539,64.6666667 L164.798539,74.6666667 L160.798539,94.6666667 L158.298539,95.6666667 L157.298539,79.1666667 L142.798539,88.6666667 L140.298539,88.6666667 L133.798539,84.6666667 L140.298539,84.6666667 L153.798539,75.6666667 L143.298539,74.1666667 L144.298539,72.6666667 Z" id="solidplane" stroke="#F8B334" fill="#F8B334"></path>
    </g>
</svg>