<?xml version="1.0" encoding="UTF-8"?>
<svg width="250px" height="250px" viewBox="0 0 250 250" version="1.1" xmlns="http://www.w3.org/2000/svg" xmlns:xlink="http://www.w3.org/1999/xlink">
    <title>visum-logo</title>
    <defs>
        <linearGradient x1="0%" y1="50.7897237%" x2="114.530376%" y2="50.7897237%" id="linearGradient-1">
            <stop stop-color="#FFFFFF" stop-opacity="0.5" offset="0%"></stop>
            <stop stop-color="#000000" stop-opacity="0.597519668" offset="100%"></stop>
        </linearGradient>
        <rect id="path-2" x="118" y="27.5126717" width="18" height="222"></rect>
    </defs>
    <g id="visum-logo" stroke="none" stroke-width="1" fill="none" fill-rule="evenodd">
        <g id="Rectangle">
            <use fill="#D8D8D8" xlink:href="#path-2"></use>
            <rect stroke="#979797" stroke-width="1" stroke-linejoin="square" fill="url(#linearGradient-1)" x="118.5" y="28.0126717" width="17" height="221"></rect>
        </g>
        <polygon id="Path" stroke="#979797" fill="#D20303" points="79 114 98.5 128.5 115.5 133.5 115.5 146.5 98.5 144.5 69 154"></polygon>
        <polygon id="Path" fill="#B60505" style="mix-blend-mode: darken;" points="79 114 98.5 128.5 115.5 133.5 115.5 140.5 98.5 138 71 140.5"></polygon>
        <path d="M144.5,82 L139.5,95 L132,102 C132.315033,107.049099 133.315033,110.382432 135,112 C136.684967,113.617568 139.851633,114.284235 144.5,114 L149,107 L165,104 L144.5,82 Z" id="Path-2" stroke="#BA0505" fill="#D20303"></path>
        <path d="M144.5,82 L139.5,95 L132,102 C131.9817,104.715765 132.815033,106.882432 134.5,108.5 C136.184967,110.117568 138.684967,110.784235 142,110.5 L144.5,102 L161,98 L144.5,82 Z" id="Path-2" fill="#BB0B0B"></path>
        <ellipse id="Oval" stroke="#FB3D3D" stroke-width="1.5" fill="#D20303" transform="translate(48.006156, 125.421783) rotate(9.000000) translate(-48.006156, -125.421783) " cx="48.0061558" cy="125.421783" rx="31.25" ry="50.75"></ellipse>
        <ellipse id="Oval" stroke="#FB3D3D" fill="#D20303" cx="98.5" cy="44" rx="52" ry="48.5"></ellipse>
        <path d="M58,15 C68.3867203,36.8034884 78.3867203,50.8034884 88,57 C97.6132797,63.1965116 115.279946,67.029845 141,68.5 C136.707522,74.1912023 133.040855,78.1912023 130,80.5 C126.959145,82.8087977 121.625811,85.642131 114,89 C107.004782,90.4528791 101.504782,91.1195457 97.5,91 C93.4952183,90.8804543 87.8285516,89.8804543 80.5,88 C73.2132573,84.4259888 68.0465906,81.4259888 65,79 C61.9534094,76.5740112 58.120076,72.4073445 53.5,66.5 C51.2272396,61.7725782 49.7272396,57.7725782 49,54.5 C48.2727604,51.2274218 47.7727604,46.2274218 47.5,39.5 C48.937587,32.7011859 50.2709203,27.8678526 51.5,25 C52.7290797,22.1321474 54.8957463,18.7988141 58,15 Z" id="Path-9" fill="#B60505"></path>
        <path d="M82.5,55 C82.2118031,60.2427316 82.3784698,63.9093983 83,66 C83.6215302,68.0906017 85.2881969,70.5906017 88,73.5 C89.0159894,74.6119955 90.1826561,75.4453289 91.5,76 C92.8173439,76.5546711 94.8173439,77.0546711 97.5,77.5 C99.9393834,77.5571659 101.772717,77.3904992 103,77 C104.227283,76.6095008 106.060617,75.6095008 108.5,74 C109.622098,73.0594244 110.455432,72.226091 111,71.5 C111.544568,70.773909 112.211235,69.6072423 113,68 C112.693872,66.2346811 112.360539,64.9013478 112,64 C111.639461,63.0986522 110.972794,61.9319855 110,60.5 C108.531984,60.4548031 107.531984,60.2881364 107,60 C96.9662368,54.5654487 92.3087766,51 92,51 C91.7634789,51 89.0895737,50.657387 86,52 C85.1569216,52.3663703 83.990255,53.3663703 82.5,55 Z" id="Path-8" fill="#3C0606"></path>
        <ellipse id="Oval" stroke="#FB3D3D" fill="#D20303" transform="translate(181.788271, 63.083290) rotate(-17.000000) translate(-181.788271, -63.083290) " cx="181.788271" cy="63.0832901" rx="45.5" ry="52"></ellipse>
        <path d="M152,23 C150.666667,36 150.5,43 151.5,44 C152.000304,44.5003037 153.991797,50.0764467 161,56 C165.666463,59.9442406 176.499796,67.777574 193.5,79.5 C194.915069,86.07396 196.581736,90.57396 198.5,93 C200.418264,95.42604 204.418264,98.0927067 210.5,101 C208.501067,104.3843 206.8344,106.550966 205.5,107.5 C199.932999,111.459286 194.112494,112.599822 191,113 C186.768417,113.544061 180.935084,113.044061 173.5,111.5 C163.617435,106.881166 157.284101,103.214499 154.5,100.5 C151.715899,97.7855011 148.882565,94.2855011 146,90 C144.803118,88.4561092 143.969785,87.2894425 143.5,86.5 C142.692216,85.1425726 142.2035,83.5093695 141.5,82.5 C140.182796,80.6100981 138.682796,75.2767647 137,66.5 C136.889715,62.0092922 136.723048,58.5092922 136.5,56 C136.276952,53.4907078 137.110285,49.4907078 139,44 C139.97308,41.0207703 140.639747,39.0207703 141,38 C141.935017,35.3506464 144.491099,32.106769 145.5,30.5 C147.091981,27.9646222 149.258648,25.4646222 152,23 Z" id="Path-6" fill="#B60505"></path>
        <path d="M161,70.5 C159.635607,68.9406936 156.890805,72.2830458 155.5,73.5 C154.572797,74.3113028 153.572797,75.4779695 152.5,77 C151.296899,78.9581391 150.630233,80.4581391 150.5,81.5 C150.369767,82.5418609 150.536434,83.8751943 151,85.5 C151.525956,86.6589661 152.192623,87.8256328 153,89 C153.807377,90.1743672 155.307377,91.6743672 157.5,93.5 C160.881032,95.0357044 163.381032,95.7023711 165,95.5 C167.428453,95.1964434 170.16201,96.6340691 169.5,92 C168.83799,87.3659309 164.561077,85.4486077 163,81.5 C161.438923,77.5513923 162.364393,72.0593064 161,70.5 Z" id="Path-11" fill="#3C0606"></path>
        <path d="M40,176.5 C48.1008388,175.228775 53.7675055,173.562109 57,171.5 C60.2324945,169.437891 64.2324945,164.437891 69,156.5 C73.3168124,148.075485 76.1501458,141.075485 77.5,135.5 C78.8498542,129.924515 79.8498542,121.591182 80.5,110.5 C78.1104469,104.003349 76.4437802,100.503349 75.5,100 C74.5562198,99.4966505 72.3895531,99.4966505 69,100 C63.6694956,104.156407 59.6694956,107.656407 57,110.5 C54.3305044,113.343593 50.1638377,118.176926 44.5,125 C39.1753008,132.64652 35.5086341,138.813187 33.5,143.5 C31.4913659,148.186813 30.8246992,154.35348 31.5,162 C32.0927408,169.202439 32.7594074,173.202439 33.5,174 C34.2405926,174.797561 36.4072592,175.630895 40,176.5 Z" id="Path-3" fill="#B60505"></path>
        <g id="Group" transform="translate(153.000000, 62.512672)" fill="#920E12">
            <path d="M20.5,0.487328254 L0,19.4873283 C0.0274461977,22.1500668 0.527446198,24.1500668 1.5,25.4873283 C2.4725538,26.8245897 4.63922047,28.4912564 8,30.4873283 L28.5,8.98732825 L20.5,0.487328254 Z" id="Path-4"></path>
            <path d="M20.6074535,3.17209469 C20.4831059,1.77419417 20.6477975,0.893207964 21.1015282,0.529136081 C21.5552588,0.165064199 22.7080998,-0.0111330415 24.560051,0.000544359062 C26.2751103,0.425843103 27.4279512,0.954434825 28.0185738,1.58631953 C28.6091965,2.21820423 29.1032712,3.45158491 29.5007979,5.28646158 C29.6739076,6.98269672 29.5092161,8.03988016 29.0067232,8.45801192 C28.5042304,8.87614367 27.3513895,9.05234091 25.5482004,8.98660364 C23.8122714,8.32203983 22.6594305,7.61725087 22.0896775,6.87223675 C21.5199246,6.12722263 21.0258499,4.89384195 20.6074535,3.17209469 Z" id="Path-5" stroke="#D20303"></path>
        </g>
        <g id="Group-2" transform="translate(88.000000, 41.000000)">
            <path d="M4.5,4.5 L3,17 L0,25 C0.829232514,28.1625658 1.82923251,30.3292325 3,31.5 C4.17076749,32.6707675 6.33743415,33.6707675 9.5,34.5 C13.3118137,34.1285318 15.8118137,33.4618651 17,32.5 C18.1881863,31.5381349 19.1881863,29.3714682 20,26 L17,17.5 L16.5,4.5 L4.5,4.5 Z" id="Path-7" fill="#920E12"></path>
            <ellipse id="Oval" stroke="#A30606" fill="#D20303" cx="10.5" cy="5.5" rx="6" ry="5"></ellipse>
        </g>
        <path d="M52.5,123 C60.8333333,126.666667 65,128.5 65,128.5 C65,128.5 69.5,129 78.5,130 C78.5459965,130.461837 78.5459965,130.79517 78.5,131 C78.3521061,131.658597 77.6633922,135.142191 77.5,136 C77.3420681,136.829143 77.0452251,137.48533 76.5,139 C76.3211847,139.49676 75.9878513,140.49676 75.5,142 L65,136 L50.5,132.5 L52.5,123 Z" id="Path-10" fill="#920E12"></path>
        <ellipse id="Oval" stroke="#CE040A" fill="#920E12" cx="52" cy="128" rx="3.5" ry="4.5"></ellipse>
    </g>
</svg>